<svg width="42" height="42" viewBox="0 0 42 42" fill="none" xmlns="http://www.w3.org/2000/svg"><path d="M16.4 24.346a.494.494 0 00-.714 0l-5.707 5.877a.53.53 0 000 .734.496.496 0 00.713 0l5.707-5.876a.53.53 0 000-.735zm.713 1.469l-5.707 5.877a.53.53 0 000 .734.496.496 0 00.713 0l5.707-5.876a.53.53 0 000-.735.494.494 0 00-.713 0z" fill="#27AE60"/><path d="M26.388 23.238l-2.672-2.752 6.124-6.305h1.218a.495.495 0 00.356-.152l2.14-2.204a.527.527 0 000-.734l-2.853-2.939a.494.494 0 00-.713 0l-2.14 2.204a.527.527 0 00-.149.367v1.254l-6.123 6.305-2.672-2.752c.64-2.034.126-4.277-1.355-5.8a5.451 5.451 0 00-5.42-1.46.513.513 0 00-.352.368.532.532 0 00.132.5l1.893 1.949-.588 2.258-2.194.606-1.893-1.949a.492.492 0 00-.484-.135.51.51 0 00-.358.363c-.539 1.987.005 4.125 1.417 5.58a5.438 5.438 0 005.634 1.394l2.672 2.752-.662.681a2.942 2.942 0 00-1.303-.305 2.96 2.96 0 00-2.14.913l-4.995 5.14a3.188 3.188 0 000 4.409l.714.734a2.963 2.963 0 004.28 0l4.994-5.142a3.14 3.14 0 00.887-2.203c0-.473-.105-.928-.297-1.342l.662-.682 2.673 2.752c-.64 2.034-.126 4.277 1.354 5.8a5.473 5.473 0 003.925 1.671c.499 0 1.002-.069 1.495-.21a.511.511 0 00.352-.369.53.53 0 00-.131-.499l-1.894-1.95.588-2.258 2.194-.605 1.893 1.95c.127.13.311.182.485.134a.51.51 0 00.358-.362c.538-1.987-.005-4.126-1.418-5.58-1.48-1.525-3.66-2.055-5.634-1.395zm-10.564-5.001a.493.493 0 00-.541-.117 4.447 4.447 0 01-4.868-1.044A4.761 4.761 0 019.1 13.443l1.412 1.455a.494.494 0 00.487.134l2.757-.76a.511.511 0 00.357-.368l.739-2.837a.529.529 0 00-.131-.502L13.308 9.11a4.467 4.467 0 013.528 1.354c1.276 1.313 1.674 3.28 1.02 5.003-.13.32-.13.32 1.735 2.24l1.271 1.31-2.14 2.204-2.898-2.984zM28.56 12.56a.527.527 0 00.147-.368v-1.254l1.636-1.684 2.14 2.204-1.635 1.684H29.63a.495.495 0 00-.357.152L18.897 23.98l-.714-.734L28.561 12.56zM18.183 27.65l-4.995 5.143c-.761.785-2.09.785-2.853 0l-.714-.735a2.124 2.124 0 010-2.939l4.995-5.14a1.974 1.974 0 012.853 0l.714.734c.381.392.59.914.59 1.469s-.209 1.076-.59 1.468zM32.624 29l-1.413-1.455a.49.49 0 00-.487-.135l-2.756.76a.513.513 0 00-.357.368l-.738 2.838a.53.53 0 00.13.502l1.414 1.455a4.47 4.47 0 01-3.529-1.355c-1.275-1.312-1.673-3.28-1.015-5.011a.529.529 0 00-.114-.556l-2.898-2.985 2.141-2.204 2.898 2.984a.491.491 0 00.541.116 4.445 4.445 0 014.867 1.045A4.759 4.759 0 0132.624 29z" fill="#27AE60"/><circle cx="21" cy="21" r="20" stroke="#27AE60" stroke-width="2"/></svg>