<svg width="42" height="42" viewBox="0 0 42 42" fill="none" xmlns="http://www.w3.org/2000/svg"><circle cx="21" cy="21" r="20" stroke="#27AE60" stroke-width="2"/><path d="M34.294 15.17l-1.536.886-.445-.77-1.536.886-.334-.578-2.571-.315-1.28.74-2.448-4.24a1.334 1.334 0 00-1.82-.492l-.383.222-.223-.386a1.334 1.334 0 00-1.82-.491L9.147 16.839c-.5.29-.736.856-.636 1.396l-3.143 1.814 1.335 2.313 3.072-1.774.931 1.613a1.333 1.333 0 00-.141 1.529l1.558 2.698-2.304 1.33 3.56 6.167 2.304-1.33.223.386a1.334 1.334 0 001.82.49l11.52-6.65c.5-.289.735-.856.635-1.395l.455-.263c.5-.288.736-.856.636-1.395l1.351-.78 1.013-2.383-.334-.579 1.536-.886-.445-.771 1.536-.887-1.335-2.313zM20.95 11.566l.223.385-1.536.887 1.78 3.083-8.448 4.878-2.225-3.855 9.6-5.542a.445.445 0 01.606.164zM9.592 17.61l.384-.221 2.225 3.854-.768.444-2.003-3.47a.445.445 0 01.162-.607zm-2.566 3.537l-.445-.77 2.304-1.33.445.77-2.304 1.33zm5.542 6.052l.569.985a1.75 1.75 0 00-.892.23 1.75 1.75 0 00-.644.657l-.57-.986 1.537-.886zm1.335 2.313a.89.89 0 01-.323 1.214.89.89 0 01-.89-1.542.89.89 0 011.213.328zm-.2 3.199l-.57-.985a1.75 1.75 0 00.892-.23 1.75 1.75 0 00.644-.657l.57.985-1.537.887zm15.259-7.268a.445.445 0 01-.162.607l-9.6 5.542-5.118-8.865-.768.443 5.118 8.866-1.152.665a.445.445 0 01-.606-.164l-5.341-9.25a.445.445 0 01.161-.608l9.6-5.542 5.341 9.25.768-.443-5.34-9.25 1.151-.666a.445.445 0 01.607.164l5.34 9.25zm1.09-1.658a.445.445 0 01-.161.607l-.384.222-5.119-8.865a1.334 1.334 0 00-1.82-.492l-.383.222-1.335-2.313 1.92-1.108a.445.445 0 01.606.164l6.676 11.563zm2.293-3.122l-.723 1.702-1.024.591-3.56-6.167 1.023-.591 1.837.224 2.447 4.24zm.98-1.85l-.768.443-1.335-2.313.768-.444 1.335 2.313zm1.09-1.659l-.767.444-.445-.771.768-.444.445.771z" fill="#27AE60"/></svg>