<svg width="69" height="47" viewBox="0 0 69 47" fill="none" xmlns="http://www.w3.org/2000/svg"><path d="M67.519 10.128s-.668-4.6-2.711-6.626C62.218.842 59.306.83 57.978.673 48.428 0 34.112 0 34.112 0h-.026S19.77 0 10.223.673c-1.33.157-4.24.17-6.831 2.83-2.043 2.025-2.71 6.625-2.71 6.625S0 15.526 0 20.93v5.064c0 5.404.681 10.801.681 10.801s.668 4.6 2.711 6.626c2.597 2.66 6.003 2.575 7.518 2.856 5.456.51 23.19.673 23.19.673s14.33-.02 23.877-.7c1.336-.156 4.24-.17 6.831-2.829 2.043-2.025 2.711-6.626 2.711-6.626s.681-5.404.681-10.801V20.93c0-5.404-.681-10.802-.681-10.802zM27.056 32.13V13.376l18.428 9.41-18.428 9.344z" fill="#282928" fill-opacity=".8"/><path d="M27.056 32.13l18.428-9.345-18.428-9.409V32.13z" fill="#fff"/><path opacity=".12" fill-rule="evenodd" clip-rule="evenodd" d="M27.056 13.376l16.158 10.56 2.27-1.15-18.428-9.41z" fill="#000"/></svg>