<svg width="50" height="32" viewBox="0 0 50 32" fill="none" xmlns="http://www.w3.org/2000/svg"><path d="M34.873 24.31l4.588-7.066 3.094.018v.228l-5.186 6.82h-2.496zm0-13.992h2.496l5.186 6.838v.229l-3.094.017-4.588-7.084zm6.135 13.993l4.588-7.067 3.094.018v.228l-5.186 6.82h-2.496zm0-13.993h2.496l5.186 6.838v.229l-3.094.017-4.588-7.084zm-31.506.053l-4.588 7.066-3.094-.017v-.229l5.186-6.82h2.496zM4.914 17.28l4.588 7.084H7.006L1.82 17.525v-.228l3.094-.018zm10.406-6.908l-4.588 7.066-3.093-.017v-.229l5.185-6.82h2.496zm-4.588 6.908l4.588 7.084h-2.496L7.64 17.525v-.228l3.093-.018zM24 2h2v30h-2z" fill="#fff"/></svg>