<svg width="70" height="70" viewBox="0 0 70 70" fill="none" xmlns="http://www.w3.org/2000/svg"><path d="M35 1.467c18.512 0 33.533 15.05 33.533 33.533S53.483 68.563 35 68.563c-18.512 0-33.533-15.05-33.533-33.534C1.467 16.546 16.487 1.467 35 1.467zM35 0C15.666 0 0 15.666 0 35s15.666 35 35 35 35-15.666 35-35C70 15.696 54.334 0 35 0z" fill="#E30613"/><path d="M45.591 48.114c-.998 0-1.936-.499-2.464-1.056-.352-.352-.352-.939 0-1.32.352-.352.938-.352 1.32 0 0 0 .322.322.792.44.323.088.821.146 1.438-.44.616-.617.557-1.115.44-1.438-.147-.44-.44-.792-.47-.792-.352-.352-.352-.939 0-1.32.352-.352.939-.352 1.32 0 .968.968 1.76 3.05 0 4.84-.762.793-1.584 1.086-2.376 1.086z" fill="#E30613"/><path d="M40.34 49.874c-.998 0-1.937-.498-2.465-1.056-.352-.352-.352-.939 0-1.32.352-.352.939-.352 1.32 0 0 0 .323.323.792.44.323.088.822.147 1.438-.44.616-.616.557-1.115.44-1.438-.147-.44-.44-.792-.47-.792-.352-.352-.352-.939 0-1.32.352-.352.94-.352 1.32 0 .969.968 1.76 3.051 0 4.84-.792.793-1.613 1.086-2.376 1.086z" fill="#E30613"/><path d="M35.088 51.575c-.998 0-1.907-.469-2.494-.997l-.03-.03-1.76-1.76c-.351-.352-.351-.938 0-1.32 0 0 .323-.323.44-.792.089-.323.147-.821-.44-1.437-.615-.616-1.114-.558-1.437-.44-.44.146-.792.44-.792.469-.352.352-.939.352-1.32 0-.352-.352-.352-.939 0-1.32.968-.968 3.05-1.76 4.84 0 1.409 1.408 1.203 2.992.558 4.078l1.173 1.173c.06.059.382.323.822.44.528.147.968.03 1.408-.41.44-.44.587-.91.41-1.467a2.763 2.763 0 00-.44-.793.93.93 0 01.06-1.32.93.93 0 011.32.059c.91.997 1.672 3.11-.03 4.811-.704.793-1.525 1.056-2.288 1.056z" fill="#E30613"/><path d="M29.631 49.874c-.763 0-1.584-.293-2.347-1.056-.968-.968-1.29-2.17-.88-3.374a4.2 4.2 0 01.88-1.467c.352-.352.939-.352 1.32 0 .352.353.352.94 0 1.32 0 0-.322.323-.44.793-.088.322-.146.821.44 1.437.616.616 1.115.558 1.438.44.44-.146.792-.44.792-.47.352-.351.939-.351 1.32 0 .382.353.352.94 0 1.321-.587.558-1.496 1.056-2.523 1.056zm19.48-5.281c-.997 0-1.936-.498-2.464-1.056-.352-.352-.352-.939 0-1.32a.92.92 0 011.29 0c.03.03.353.323.793.47.323.087.822.146 1.438-.44.616-.617.557-1.115.44-1.438-.147-.44-.44-.792-.47-.792l-1.73-1.731-.03-.03-8.508-8.508h-6.278l-1.496 1.497c-1.82 1.819-3.462 2.552-5.017 2.23-1.38-.265-2.377-1.262-3.345-2.23a.91.91 0 01-.264-.646.91.91 0 01.264-.645c.03-.03 1.82-1.79 5.281-5.252 3.374-3.374 10.679-2.435 12.645-2.112l3.168-3.168a.91.91 0 01.646-.265.91.91 0 01.645.265l8.801 8.8c.352.353.352.94 0 1.321l-3.285 3.286-1.497 4.518 1.35 1.35c.059.058.616.615.88 1.466.41 1.203.088 2.406-.88 3.374-.763.763-1.584 1.056-2.377 1.056zM33.24 27.871h7.04a.91.91 0 01.646.264l7.745 7.745 1.291-3.843c.059-.147.118-.264.235-.352l2.875-2.875-7.54-7.482-2.875 2.876a.944.944 0 01-.821.264c-.088-.03-8.332-1.614-11.471 1.525-2.26 2.26-3.814 3.814-4.636 4.606.558.528 1.144.968 1.731 1.086.91.176 1.995-.382 3.345-1.731l1.76-1.76a.877.877 0 01.675-.323zM20.86 44.593c-.764 0-1.585-.293-2.348-1.056-1.76-1.76-.968-3.873 0-4.84l3.52-3.521c.969-.968 3.052-1.76 4.841 0 1.76 1.76.969 3.872 0 4.84-.352.353-.938.353-1.32 0-.352-.352-.352-.938 0-1.32 0 0 .323-.322.44-.792.088-.323.147-.821-.44-1.437-.616-.616-1.115-.558-1.437-.44-.44.146-.793.44-.793.469l-3.52 3.52s-.323.323-.44.793c-.088.322-.147.821.44 1.437.616.616 1.115.558 1.438.44.44-.146.792-.44.792-.47.352-.351.938-.351 1.32 0 .381.353.352.94 0 1.321-.587.557-1.496 1.056-2.494 1.056z" fill="#E30613"/><path d="M24.35 48.114c-.85 0-1.672-.353-2.347-1.057-.968-.968-1.29-2.17-.88-3.373a4.21 4.21 0 01.88-1.467l3.52-3.52c.118-.118 1.086-1.057 2.495-1.057.85 0 1.672.352 2.347 1.056 1.76 1.76.968 3.873 0 4.84l-3.52 3.521c-.118.118-1.086 1.056-2.495 1.056zm-1.026-4.577s-.323.322-.44.792c-.088.323-.147.821.44 1.438.352.351.674.498 1.026.498.616 0 1.174-.498 1.174-.498l3.52-3.521s.323-.323.44-.792c.088-.323.147-.822-.44-1.438-.352-.352-.674-.498-1.026-.498-.617 0-1.174.498-1.174.498l-3.52 3.52zm15.167 5.545a.91.91 0 01-.645-.264l-3.52-3.52c-.353-.352-.353-.94 0-1.32.351-.353.938-.353 1.32 0l3.52 3.52c.352.352.352.939 0 1.32a.93.93 0 01-.675.264zm5.281-1.76a.91.91 0 01-.645-.264l-5.281-5.28c-.352-.353-.352-.94 0-1.321.352-.352.939-.352 1.32 0l5.28 5.28c.353.353.353.94 0 1.32a.98.98 0 01-.674.265zm3.521-3.521a.91.91 0 01-.646-.264l-5.28-5.28c-.353-.352-.353-.94 0-1.32.351-.353.938-.353 1.32 0l5.28 5.28c.352.352.352.939 0 1.32a.98.98 0 01-.674.264zM20.918 38.52a.906.906 0 01-.88-.645L18.336 32.8l-3.374-3.374a.91.91 0 01-.264-.646.91.91 0 01.264-.645l8.802-8.802c.352-.352.938-.352 1.32 0l3.168 3.169c1.115-.176 3.932-.557 6.777-.264.5.059.88.499.822 1.027a.928.928 0 01-1.027.821c-3.315-.352-6.689.323-6.718.323a.944.944 0 01-.851-.264L24.38 21.27l-7.51 7.48 2.874 2.876c.088.088.176.235.235.352l1.76 5.28c.176.5-.088.998-.586 1.174-.06.088-.147.088-.235.088z" fill="#E30613"/></svg>