<svg width="70" height="70" viewBox="0 0 70 70" fill="none" xmlns="http://www.w3.org/2000/svg"><path d="M35 1.467c18.512 0 33.533 15.05 33.533 33.533 0 18.512-15.05 33.533-33.533 33.533-18.512 0-33.533-15.05-33.533-33.533S16.517 1.467 35 1.467zM35 0C15.666 0 0 15.666 0 35s15.666 35 35 35 35-15.666 35-35c.03-19.334-15.637-35-35-35z" fill="#E30613"/><path d="M48.642 38.696h-8.567v2.2h8.567v-2.2zm1.672-4.078H40.075v2.2h10.24v-2.2zm-5.956 8.009h-4.283v2.2h4.283v-2.2zm-2.787-17.162a1.496 1.496 0 100-2.993 1.496 1.496 0 000 2.993zm4.636 0a1.496 1.496 0 100-2.993 1.496 1.496 0 000 2.993zm4.899 0a1.496 1.496 0 100-2.993 1.496 1.496 0 000 2.993z" fill="#E30613"/><path d="M52.192 20.36a2.848 2.848 0 012.846 2.846v23.851a2.848 2.848 0 01-2.846 2.846H17.867a2.848 2.848 0 01-2.846-2.846V23.206a2.848 2.848 0 012.846-2.846h34.325zm0-1.467H17.867a4.32 4.32 0 00-4.313 4.313v23.851a4.32 4.32 0 004.313 4.313h34.325a4.32 4.32 0 004.313-4.313V23.206a4.32 4.32 0 00-4.313-4.313z" fill="#E30613"/><path d="M56.505 26.902h-42.98v1.672h42.98v-1.672zM27.519 46.647a7.07 7.07 0 100-14.141 7.07 7.07 0 000 14.14z" fill="#E30613"/></svg>