<svg width="70" height="70" viewBox="0 0 70 70" fill="none" xmlns="http://www.w3.org/2000/svg"><path d="M35 1.467c18.512 0 33.533 15.05 33.533 33.533S53.483 68.533 35 68.533C16.488 68.533 1.467 53.483 1.467 35S16.517 1.467 35 1.467zM35 0C15.666 0 0 15.666 0 35s15.666 35 35 35 35-15.666 35-35c.03-19.334-15.666-35-35-35z" fill="#E30613"/><path fill-rule="evenodd" clip-rule="evenodd" d="M15.461 20.243A3.468 3.468 0 0012 23.705v18.923a3.468 3.468 0 003.462 3.462h3.374c.587 2.053 2.464 3.58 4.694 3.58s4.107-1.526 4.694-3.58h19.07c.586 2.053 2.464 3.58 4.694 3.58s4.107-1.526 4.694-3.58h.44a2.867 2.867 0 002.846-2.846V36.35c.029-.147 0-.323-.03-.47 0-.029 0-.029-.03-.058a1.037 1.037 0 00-.234-.382l-5.838-8.068a1.045 1.045 0 00-.88-.44h-7.07v-3.198a3.468 3.468 0 00-3.462-3.461l-26.962-.03zm0 2.2h27.02c.704 0 1.291.558 1.291 1.291v20.214H28.37a4.885 4.885 0 00-4.812-4.02 4.91 4.91 0 00-4.811 4.02H15.46c-.704 0-1.29-.557-1.29-1.29V23.733c0-.733.557-1.29 1.29-1.29zm30.453 6.66h6.513l5.369 7.452v6.718a.664.664 0 01-.675.675h-.323a4.885 4.885 0 00-4.811-4.02 4.887 4.887 0 00-4.812 4.02h-1.261V29.103zM23.529 42.1c1.496 0 2.7 1.203 2.7 2.699v.059a2.68 2.68 0 01-2.7 2.64 2.692 2.692 0 01-2.7-2.699c0-1.496 1.204-2.7 2.7-2.7zm28.487 0c1.496 0 2.7 1.203 2.7 2.699 0 1.496-1.204 2.7-2.7 2.7a2.692 2.692 0 01-2.7-2.7c0-1.496 1.174-2.7 2.7-2.7z" fill="#E30613"/><path fill-rule="evenodd" clip-rule="evenodd" d="M29.72 27.9c-.617 0-1.086.47-1.115 1.086 0 .616.469 1.085 1.085 1.115h10.738c.616 0 1.085-.47 1.114-1.086.03-.616-.469-1.085-1.085-1.115H29.719zm-4.9 4.9c-.616 0-1.086.47-1.115 1.086-.03.616.47 1.085 1.085 1.114h15.637c.617 0 1.086-.47 1.115-1.085 0-.616-.47-1.086-1.085-1.115H24.82z" fill="#E30613"/></svg>