<svg width="70" height="70" viewBox="0 0 70 70" fill="none" xmlns="http://www.w3.org/2000/svg"><path d="M35 1.467c18.512 0 33.533 15.05 33.533 33.533 0 18.512-15.05 33.533-33.533 33.533-18.512 0-33.533-15.05-33.533-33.533S16.517 1.467 35 1.467zM35 0C15.666 0 0 15.666 0 35s15.666 35 35 35 35-15.666 35-35c.03-19.334-15.637-35-35-35z" fill="#E30613"/><path d="M57.043 32.115H52.25a.957.957 0 100 1.916h4.792a.957.957 0 100-1.916zm-4.793-1.917a.956.956 0 00.357-.069l.015-.006h.003l4.773-1.91a.957.957 0 10-.712-1.778v-.002l-.015.007h-.002l-4.774 1.91a.958.958 0 00.355 1.848zm-4.79-2.194v-8.347a.958.958 0 00-1.916 0v.576l-17.249 5.174H17.753a.959.959 0 00-.957.958v1.916h-2.875a.96.96 0 00-.958.959v1.916a.96.96 0 00-.96.959v1.916c0 .529.43.959.96.959v1.916c0 .53.43.958.958.958h2.875v1.917c0 .53.43.957.957.957h1.356l2.478 10.563h8.624l-2.39-6.863a.955.955 0 00.042-1.625l.932-1.925 16.748 5.026v.574a.958.958 0 101.916 0v-8.526a5.745 5.745 0 002.875-4.98 5.745 5.745 0 00-2.874-4.978zm-32.581 7.943v-5.749h1.917v5.75H14.88zm3.833-8.624h9.583v11.5h-9.583v-11.5zm4.395 22.062l-2.028-8.647h5.658l-.952 1.971-.346.716.26.75 1.816 5.21h-4.408zm7.104-10.073V37.96l.018-.035h-.018V26.833l15.333-4.6v21.68l-15.333-4.6zm17.249-3.798V30.45c.596.676.958 1.562.958 2.532a3.81 3.81 0 01-.958 2.53zm9.938 2.42l-4.773-1.91-.002-.002-.016-.006v.001a.957.957 0 10-.712 1.78l4.773 1.908c.001 0 .003 0 .004.002l.014.005v-.001a.958.958 0 10.712-1.777z" fill="#E30613"/></svg>