<svg width="70" height="70" viewBox="0 0 70 70" fill="none" xmlns="http://www.w3.org/2000/svg"><path d="M35 1.467c18.512 0 33.533 15.05 33.533 33.533S53.483 68.533 35 68.533C16.488 68.533 1.467 53.483 1.467 35S16.487 1.467 35 1.467zM35 0C15.666 0 0 15.666 0 35s15.666 35 35 35 35-15.666 35-35S54.334 0 35 0z" fill="#E30613"/><path d="M49.931 17.5H34.077c-1.417 0-2.569 1.13-2.569 2.52v7.53a19.72 19.72 0 00-4.015 1.303 33.825 33.825 0 00-3.248 1.622c-2.126 1.188-3.602 3.244-4.015 5.59l-2.716 15.35c-.089.522.265 1.014.797 1.13a1.016 1.016 0 001.151-.782l2.716-15.35c.325-1.796 1.447-3.331 3.041-4.229a37.508 37.508 0 013.071-1.506 17.731 17.731 0 013.248-1.072v6.43a6.726 6.726 0 00-.709-.232.995.995 0 00-1.21.666c-.148.522.177 1.043.679 1.188a3.54 3.54 0 011.417.666 7.904 7.904 0 01-2.303 2.317.993.993 0 00-.266 1.361c.295.464.915.55 1.388.261a9.704 9.704 0 002.893-2.983l3.218-4.953c.502-.81 1.595-1.042 2.392-.521a1.65 1.65 0 01.531 2.346l-2.391 3.794a8.779 8.779 0 00-1.388 5.069c.089 2.432-1.122 4.72-3.159 6.082l-.266.173a9.035 9.035 0 00-2.598 2.665c-.295.463-.147 1.043.325 1.332a.983.983 0 001.358-.318 6.925 6.925 0 012.037-2.086l.266-.173a8.982 8.982 0 003.307-3.997l.236.231c1.21 1.188 3.189 1.217 4.4.03.353-.348.649-.783.796-1.275 1.624.348 3.248-.637 3.602-2.23.118-.55.089-1.1-.088-1.622l-.06-.145h3.986c1.418 0 2.569-1.13 2.569-2.52V20.02a2.565 2.565 0 00-2.569-2.52zm-8.68 19.637a3.602 3.602 0 00-1.328-4.982c-1.683-.985-3.868-.492-4.96 1.1l-1.506 2.318V20.02c0-.319.265-.58.59-.58h11.574v22.273h-7.234c.118-.26.266-.522.414-.782l2.45-3.794zM40.218 47.62a1.152 1.152 0 01-1.535-.087l-1.034-1.042a6.96 6.96 0 00.089-1.564c0-.435.03-.84.088-1.275h1.093s0 .03.03.058l1.535 2.462c.295.463.177 1.1-.266 1.448zm3.897-3.215c.177.55-.118 1.13-.65 1.304-.442.144-.974-.03-1.21-.435l-.089-.174-.944-1.506h2.627l.266.811zm6.407-3.273c0 .32-.266.58-.59.58h-2.303V19.44h2.302c.325 0 .59.261.59.58v21.113z" fill="#E30613"/></svg>