<svg width="70" height="70" viewBox="0 0 70 70" fill="none" xmlns="http://www.w3.org/2000/svg"><path d="M35 1.467c18.512 0 33.533 15.05 33.533 33.533 0 18.512-15.05 33.533-33.533 33.533-18.512 0-33.533-15.05-33.533-33.533S16.517 1.467 35 1.467zM35 0C15.666 0 0 15.666 0 35s15.666 35 35 35 35-15.666 35-35c.03-19.334-15.666-35-35-35z" fill="#E30613"/><path d="M51.742 35.457c.408-.058.816.204.875.612l2.654 14.992a.74.74 0 01-.613.875l-5.279.934c-.408.058-.816-.205-.875-.613L45.85 37.265a.74.74 0 01.612-.875l5.28-.933zm-.496 1.633l-3.792.671 2.392 13.504 3.792-.67-2.392-13.505z" fill="#E30613"/><path fill-rule="evenodd" clip-rule="evenodd" d="M52.267 38.461l.262 1.488-5.28.933-.262-1.488 5.28-.933z" fill="#E30613"/><path d="M28.525 35.457c-.408-.058-.817.204-.875.612l-2.654 14.992a.74.74 0 00.612.875l5.28.934c.408.058.816-.205.874-.613l2.655-14.992c.058-.408-.205-.816-.613-.875l-5.279-.933zm.496 1.633l3.791.671-2.391 13.504-3.792-.67 2.392-13.505z" fill="#E30613"/><path fill-rule="evenodd" clip-rule="evenodd" d="M28 38.461l-.262 1.488 5.279.933.262-1.488L28 38.461z" fill="#E30613"/><path d="M40.163 31.286c-3.53-.03-6.767 2.012-8.284 5.22a.777.777 0 00.35 1.022c.38.204.817.029 1.021-.35a7.52 7.52 0 016.913-4.346 7.615 7.615 0 016.854 4.433c.175.38.612.554.991.38.38-.176.554-.613.38-.992a9.055 9.055 0 00-8.225-5.367z" fill="#E30613"/><path d="M41.65 12.328a.772.772 0 00-.758.758v3.033c0 .409.35.759.758.759a1.12 1.12 0 011.137 1.137 1.12 1.12 0 01-1.137 1.138.772.772 0 00-.758.758v2.275c0 .409.35.759.758.759a1.12 1.12 0 011.137 1.137 1.12 1.12 0 01-1.137 1.137h-1.517a3.803 3.803 0 00-3.791 3.792 3.803 3.803 0 003.791 3.792.753.753 0 00.759-.758.753.753 0 00-.759-.759h-.029a2.278 2.278 0 01-2.275-2.275 2.278 2.278 0 012.275-2.275h1.517a2.664 2.664 0 002.654-2.654c0-1.167-.846-1.983-1.896-2.333v-1.4c1.05-.35 1.896-1.167 1.896-2.334 0-1.166-.846-1.983-1.896-2.333v-1.838h2.013c1.108 0 2.041.788 2.245 1.867l3.705 20.621c.087.408.466.67.875.613a.778.778 0 00.612-.876l-3.704-20.62a3.786 3.786 0 00-3.733-3.121H41.65z" fill="#E30613"/><path d="M40.892 29.011c0 .408-.35.758-.759.758a.772.772 0 01-.758-.758c0-.408.35-.758.758-.758.409 0 .759.32.759.758z" fill="#E30613"/><path fill-rule="evenodd" clip-rule="evenodd" d="M35.846 12.328a3.786 3.786 0 00-3.733 3.12L28.407 36.07l1.488.263 3.704-20.62a2.283 2.283 0 012.246-1.867h2.012v1.837c-1.05.35-1.895 1.167-1.895 2.333 0 1.167.845 1.984 1.895 2.334v1.4c-1.05.35-1.895 1.166-1.895 2.333a2.664 2.664 0 002.654 2.654h2.275V25.22h-2.275a1.12 1.12 0 01-1.138-1.137 1.12 1.12 0 011.138-1.137h.758v-3.792h-.758a1.12 1.12 0 01-1.138-1.138 1.12 1.12 0 011.138-1.137h.758v-4.55h-3.53zM9.07 42.632v1.517h6.067c2.1 0 3.792 1.691 3.792 3.791v5.309c0 2.916 2.392 5.308 5.309 5.308h.058a5.12 5.12 0 004.9-5.337v-1.488h-1.517v1.576a3.564 3.564 0 01-3.412 3.732c-2.1 0-3.763-1.691-3.763-3.791V47.94c0-2.916-2.392-5.308-5.308-5.308H9.07z" fill="#E30613"/></svg>