<svg width="70" height="70" viewBox="0 0 70 70" fill="none" xmlns="http://www.w3.org/2000/svg"><path d="M35 1.467c18.512 0 33.533 15.05 33.533 33.533 0 18.512-15.05 33.533-33.533 33.533-18.512 0-33.533-15.05-33.533-33.533C1.437 16.517 16.487 1.467 35 1.467zM35 0C15.666 0 0 15.666 0 35s15.666 35 35 35 35-15.666 35-35S54.334 0 35 0z" fill="#E30613"/><path d="M61.6 39.585h-3.084v-1.607h-3.083V36.78l-3.589-2.805h-2.55v-8.794c0-1.315-1.038-2.396-2.3-2.396h-.756v-.79c0-1.314-1.037-2.395-2.299-2.395H22.438c-1.01 0-1.85.672-2.159 1.607H14V26h6.14v3.36c-.898.321-1.543 1.198-1.543 2.25v5.61H14v12.796h4.597v.79c0 1.314 1.038 2.395 2.3 2.395H43.91c1.01 0 1.85-.672 2.159-1.607h.897c1.009 0 1.85-.672 2.158-1.607h2.691l3.589-2.805v-1.198h3.083v-1.606h3.084v-4.792h.028zm-16.876-17.59v.79h-3.083v6.398H24.765v-8.005h19.174c.449 0 .785.38.785.818zm-22.258-.817h.757v8.005H21.68v-7.187c.028-.438.364-.818.785-.818zm-6.896 3.214v-1.607h4.597v1.607H15.57zm3.055 14.404v2.045a3.072 3.072 0 00-1.541-.438 3.07 3.07 0 00-1.542.438v-2.045h3.083zm0 4.792c0 .876-.7 1.606-1.541 1.606s-1.542-.73-1.542-1.606c0-.877.7-1.607 1.542-1.607.84 0 1.541.73 1.541 1.607zm-3.055 4.791v-2.045a3.07 3.07 0 001.542.438c.56 0 1.093-.175 1.542-.438v2.045H15.57zm29.154 2.396c0 .438-.336.789-.757.789H24.793V33.157H23.25v18.407h-2.327c-.42 0-.757-.35-.757-.789V31.58c0-.438.337-.789.757-.789H40.1v19.196h1.542V30.79h2.298c.42 0 .757.351.757.79v19.195h.028zm3.056-1.578c0 .439-.337.79-.757.79h-.757V31.578c0-1.315-1.037-2.396-2.299-2.396h-.757v-4.791h3.84c.421 0 .758.35.758.789v24.016h-.028zm6.139-2.805l-2.551 1.987h-2.046V35.582h2.046l2.551 1.987v8.823zm3.084-2.016H55.46v-4.791h1.542v4.791zm3.055-1.577h-1.542v-1.607h1.542v1.607z" fill="#E30613"/></svg>