<svg width="70" height="70" viewBox="0 0 70 70" fill="none" xmlns="http://www.w3.org/2000/svg"><path d="M35 1.467c18.512 0 33.533 15.05 33.533 33.533 0 18.512-15.05 33.533-33.533 33.533-18.512 0-33.533-15.05-33.533-33.533S16.517 1.467 35 1.467zM35 0C15.666 0 0 15.666 0 35s15.666 35 35 35 35-15.666 35-35c.03-19.304-15.666-35-35-35z" fill="#E30613"/><path d="M47.44 52.163H21.034v-31.51h22.737v-2.17H20.566c-.94 0-1.702.762-1.702 1.701v32.448c0 .968.763 1.702 1.702 1.702h27.372c.939 0 1.701-.763 1.701-1.702V39.43a3.61 3.61 0 01-2.2-.734v13.467z" fill="#E30613"/><path d="M53.541 17.427c0-.44-.176-.91-.528-1.233-.381-.322-.762-.528-1.232-.528h-4.283c-.44 0-.91.176-1.232.528a1.757 1.757 0 00-.529 1.233v15.871c0 .411.177.851.44 1.145l2.172 2.435c.322.352.821.616 1.29.616.44 0 .91-.206 1.233-.528l.088-.088 2.17-2.435c.294-.323.44-.734.44-1.145l-.029-15.871zm-2.2.469v1.907H47.91v-1.907h3.432zm0 4.049v7.95H47.91v-7.95h3.432zM49.64 35.059l-1.701-1.966v-1.027h3.432v1.056l-1.73 1.937zm-7.54-9.565H31.685c-.616 0-1.086.5-1.086 1.086 0 .616.5 1.086 1.086 1.086H42.1c.616 0 1.085-.5 1.085-1.086.03-.587-.47-1.085-1.085-1.085zm0 6.572H31.685c-.616 0-1.086.499-1.086 1.086 0 .616.5 1.085 1.086 1.085H42.1c.616 0 1.085-.498 1.085-1.085.03-.616-.47-1.086-1.085-1.086zm0 6.542H31.685c-.616 0-1.086.5-1.086 1.086 0 .587.5 1.085 1.086 1.085H42.1c.616 0 1.085-.498 1.085-1.085s-.47-1.086-1.085-1.086zm0 6.572H31.685c-.616 0-1.086.498-1.086 1.085 0 .616.5 1.086 1.086 1.086H42.1c.616 0 1.085-.499 1.085-1.086.03-.616-.47-1.085-1.085-1.085zM27.314 25.494h-.94c-.615 0-1.085.5-1.085 1.086 0 .616.499 1.086 1.086 1.086h.939c.616 0 1.085-.5 1.085-1.086.03-.587-.47-1.085-1.085-1.085zm0 6.572h-.94c-.615 0-1.085.499-1.085 1.086 0 .616.499 1.085 1.086 1.085h.939c.616 0 1.085-.498 1.085-1.085.03-.616-.47-1.086-1.085-1.086zm0 6.542h-.94c-.615 0-1.085.5-1.085 1.086 0 .587.499 1.085 1.086 1.085h.939c.616 0 1.085-.498 1.085-1.085s-.47-1.086-1.085-1.086zm0 6.572h-.94c-.615 0-1.085.498-1.085 1.085 0 .616.499 1.086 1.086 1.086h.939c.616 0 1.085-.499 1.085-1.086.03-.616-.47-1.085-1.085-1.085z" fill="#E30613"/></svg>