<svg width="70" height="70" viewBox="0 0 70 70" fill="none" xmlns="http://www.w3.org/2000/svg"><path d="M35 1.467c18.512 0 33.533 15.05 33.533 33.533S53.483 68.533 35 68.533C16.488 68.533 1.467 53.483 1.467 35S16.517 1.467 35 1.467zM35 0C15.666 0 0 15.666 0 35s15.666 35 35 35 35-15.666 35-35c.03-19.334-15.666-35-35-35z" fill="#E30613"/><path d="M39.9 32.536H20.713a.851.851 0 000 1.701H39.9a.851.851 0 000-1.701zm0 5.398H20.713a.851.851 0 000 1.702H39.9a.851.851 0 000-1.702zm0 5.428H20.713a.851.851 0 000 1.701H39.9a.851.851 0 000-1.701z" fill="#E30613"/><path d="M41.836 14.141c-8.479 0-15.344 5.457-15.344 12.146 0 .088.03.176.03.293h-8.89a2.817 2.817 0 00-2.816 2.817V48.26a2.817 2.817 0 002.816 2.816h.968l5.486 5.047a.872.872 0 00.587.234c.147 0 .294-.03.41-.117a.867.867 0 00.44-.91l-.791-4.283h18.336a2.817 2.817 0 002.816-2.816v-10.24c.646-.146 1.291-.293 1.907-.498.969 1.056 3.433 3.491 5.927 3.491a.825.825 0 00.704-.381.901.901 0 00.058-.822c-.674-1.437-1.73-4.782-.733-5.75 2.259-2.17 3.52-4.9 3.52-7.716-.088-6.747-6.953-12.175-15.431-12.175zm2.288 34.09c0 .617-.499 1.115-1.115 1.115H23.646a.84.84 0 00-.645.294c-.147.205-.235.44-.176.704l.499 2.787-3.873-3.55a.819.819 0 00-.587-.235h-1.29a1.114 1.114 0 01-1.115-1.114V29.367c0-.616.498-1.114 1.114-1.114H42.98c.616 0 1.115.498 1.115 1.114v18.865h.03zM52.485 32.8c-1.466 1.467-.821 4.313-.234 6.132-1.38-.617-2.729-1.966-3.433-2.729 0-.03-.03-.088-.058-.117a.862.862 0 00-1.057-.411c-.645.235-1.29.41-1.936.558v-6.895a2.817 2.817 0 00-2.816-2.816H28.135c0-.088-.03-.176-.03-.294 0-5.75 6.132-10.444 13.672-10.444 7.54 0 13.672 4.694 13.672 10.444.058 2.435-.998 4.665-2.964 6.572z" fill="#E30613"/></svg>