<svg width="70" height="70" viewBox="0 0 70 70" fill="none" xmlns="http://www.w3.org/2000/svg"><path d="M35 1.467c18.512 0 33.533 15.05 33.533 33.533S53.483 68.533 35 68.533C16.488 68.533 1.467 53.483 1.467 35S16.517 1.467 35 1.467zM35 0C15.666 0 0 15.666 0 35s15.666 35 35 35 35-15.666 35-35c.03-19.334-15.666-35-35-35z" fill="#E30613"/><path d="M34.941 32.975c.147.147.323.264.528.264.206 0 .44-.058.587-.205l14.17-11.97c.147-.146.264-.323.264-.528 0-.205-.059-.44-.205-.587-3.873-4.518-9.271-6.865-14.816-6.865-4.46 0-8.919 1.497-12.556 4.606-.323.264-.382.793-.118 1.115l12.146 14.17zm-10.298-14.58a17.975 17.975 0 017.394-3.374l-5.956 5.046-1.438-1.672zm13.965-3.433c.704.117 1.438.323 2.142.528l-10.796 9.124-.851-1.027 9.212-7.892c.293-.205.352-.469.293-.733zm-5.691 13.114l12.028-10.18c.118-.118.206-.264.264-.44.44.264.851.586 1.291.91L33.826 29.102l-.91-1.027zm-1.027-1.232l-.91-1.027 11.384-9.593c.058-.06.117-.118.146-.147.47.205.91.44 1.408.645L31.89 26.844zm16.693-6.484L35.645 31.303l-.792-.968 12.762-10.796.059-.059c.322.235.645.557.91.88zm-11.588-5.633l-8.948 7.628-.851-1.027 6.865-5.838c.205-.205.323-.47.264-.763.44-.058.792-.058 1.232-.058.47 0 .939 0 1.438.058zm-2.523 20.595L21.328 19.773c-.264-.322-.792-.38-1.114-.117-4.93 4.195-7.452 10.151-7.452 16.136 0 4.84 1.672 9.71 5.046 13.671 4.195 4.93 10.15 7.452 16.136 7.452 4.84 0 9.71-1.672 13.671-5.046.147-.147.264-.323.264-.528 0-.205-.059-.44-.205-.587L34.472 35.323zm-15.52 13.144l-.587.528.587-.528c-3.11-3.697-4.665-8.156-4.665-12.674 0-5.31 2.142-10.562 6.337-14.376L33.298 36.32l12.645 14.904c-3.55 2.787-7.775 4.136-12.029 4.136a19.393 19.393 0 01-14.962-6.894zm33.65-25.906c-.146-.146-.322-.264-.528-.264-.205 0-.44.059-.587.206L37.317 34.53c-.146.147-.264.323-.264.528 0 .205.059.44.206.587l12.028 14.17c.147.147.323.264.528.264.206 0 .44-.059.587-.205 4.518-3.873 6.865-9.271 6.865-14.816-.059-4.4-1.555-8.86-4.665-12.498zm-2.699 25.583L38.901 35.205 51.87 24.203c2.523 3.227 3.696 7.07 3.696 10.884.03 4.87-1.907 9.564-5.662 13.056z" fill="#E30613"/></svg>