<svg width="70" height="70" viewBox="0 0 70 70" fill="none" xmlns="http://www.w3.org/2000/svg"><path d="M35 1.467c18.512 0 33.533 15.05 33.533 33.533S53.513 68.563 35 68.563c-18.512 0-33.533-15.05-33.533-33.534C1.467 16.546 16.517 1.467 35 1.467zM35 0C15.666 0 0 15.666 0 35s15.666 35 35 35 35-15.666 35-35c.03-19.334-15.637-35-35-35z" fill="#E30613"/><path d="M37.025 37.435c-6.513 0-11.794-5.28-11.794-11.793 0-6.513 5.28-11.794 11.794-11.794 6.513 0 11.793 5.28 11.793 11.794 0 6.483-5.28 11.764-11.793 11.793zm0-21.915c-5.575 0-10.093 4.518-10.093 10.092 0 5.574 4.518 10.092 10.093 10.092 5.574 0 10.092-4.518 10.092-10.092 0-5.574-4.518-10.092-10.092-10.092z" fill="#E30613"/><path d="M55.654 40.516a3.201 3.201 0 00-4.049-.763l-.938-1.144a2.58 2.58 0 00-3.374-.499l-.91.616-.557-.645a2.58 2.58 0 00-3.374-.499l-6.22 4.049-6.923-2.846a6.537 6.537 0 00-6.513.939l-8.831 7.011a.844.844 0 00-.205 1.174.844.844 0 001.173.205c.03-.029.059-.029.088-.058l8.83-7.012a4.817 4.817 0 014.841-.675l12.234 5.017a1.58 1.58 0 01.792 2.083c-.322.763-1.202 1.115-1.965.85l-8.273-3.227a.828.828 0 00-1.115.411c-.206.44 0 .94.41 1.115.03 0 .06.03.088.03l8.244 3.256c.382.147.793.235 1.203.235a3.29 3.29 0 003.286-3.14l.088-.058 8.625-5.633a1.534 1.534 0 012.142.499c.44.704.264 1.584-.41 2.083l-11.677 8.273c-1.496 1.056-3.403 1.408-5.164.88l-9.857-2.787c-1.819-.499-3.755-.117-5.222 1.086l-2.64 2.17a.843.843 0 00-.089 1.203.84.84 0 00.646.294.82.82 0 00.528-.176l2.67-2.142a4.046 4.046 0 013.667-.763l9.828 2.758a7.765 7.765 0 006.601-1.144l11.706-8.273c1.467-1.027 1.819-3.08.792-4.548-.088-.058-.117-.117-.176-.205zM43.332 38.99c.381-.234.88-.176 1.144.176l.411.499-5.163 3.403-1.585-.675 5.193-3.403zm-.176 6.25a3.393 3.393 0 00-1.496-1.38l6.572-4.312c.38-.235.88-.176 1.144.176l.792.968-7.012 4.547zm-6.044-23.295c.822.03 1.643.147 2.465.352.44.117.91-.147 1.056-.587.117-.44-.147-.91-.587-1.056a12.528 12.528 0 00-2.053-.352v-1.144a.851.851 0 00-1.702 0v1.173c-2.288.323-2.552 1.878-2.552 2.582 0 1.76 1.819 2.494 2.904 2.963l.205.088.323.118c1.115.44 1.584.704 1.584 1.496s-.528 1.173-1.555 1.232h-.176a10.596 10.596 0 01-2.845-.675c-.44-.176-.94 0-1.115.44-.176.44 0 .94.44 1.115.03 0 .059.03.059.03.88.322 1.79.586 2.728.733v1.144a.851.851 0 001.702 0v-1.173c1.554-.294 2.464-1.32 2.464-2.846 0-1.995-1.672-2.67-2.64-3.051l-.5-.206c-.791-.322-1.848-.762-1.848-1.379-.058-.352-.058-.997 1.643-.997z" fill="#E30613"/></svg>