<svg width="50" height="32" viewBox="0 0 50 32" fill="none" xmlns="http://www.w3.org/2000/svg">
<path d="M34.873 24.3105L39.4609 17.2441L42.5547 17.2617V17.4902L37.3691 24.3105H34.873ZM34.873 10.3184H37.3691L42.5547 17.1562V17.3848L39.4609 17.4023L34.873 10.3184ZM41.0078 24.3105L45.5957 17.2441L48.6895 17.2617V17.4902L43.5039 24.3105H41.0078ZM41.0078 10.3184H43.5039L48.6895 17.1562V17.3848L45.5957 17.4023L41.0078 10.3184Z" fill="white"/>
<path d="M9.50195 10.3711L4.91406 17.4375L1.82031 17.4199V17.1914L7.00586 10.3711H9.50195ZM4.91406 17.2793L9.50195 24.3633H7.00586L1.82031 17.5254V17.2969L4.91406 17.2793ZM15.3203 10.3711L10.7324 17.4375L7.63867 17.4199V17.1914L12.8242 10.3711H15.3203ZM10.7324 17.2793L15.3203 24.3633H12.8242L7.63867 17.5254V17.2969L10.7324 17.2793Z" fill="white"/>
<rect x="24" y="2" width="2" height="30" fill="white"/>
</svg>
